<svg width="20" height="18" viewBox="0 0 20 18" fill="none" xmlns="http://www.w3.org/2000/svg">
<path d="M6.45048 17.3334C14.1907 17.3334 18.4243 10.9207 18.4243 5.3596C18.4243 5.17748 18.4243 4.99617 18.412 4.81565C19.2356 4.21989 19.9465 3.48232 20.5115 2.63734C19.7435 2.97766 18.9287 3.2008 18.0945 3.29944C18.9728 2.77367 19.6305 1.94608 19.9446 0.971777C19.1186 1.46193 18.2147 1.80742 17.2724 1.99327C16.4767 1.14713 15.3653 0.666748 14.2039 0.666748C11.8931 0.666748 9.99164 2.56823 9.99164 4.87898C9.99164 5.19956 10.0283 5.51913 10.1007 5.83137C6.71877 5.66187 3.56344 4.06221 1.42759 1.43453C0.316927 3.34651 0.891611 5.82432 2.73048 7.05221C2.06085 7.03238 1.4056 6.8517 0.820462 6.52548V6.5788C0.821022 8.57443 2.24052 10.309 4.19665 10.7041C3.57714 10.873 2.92698 10.8977 2.29649 10.7763C2.84642 12.4863 4.43222 13.6651 6.22814 13.6988C4.73825 14.8697 2.89673 15.5057 1.00178 15.5038C0.666946 15.5032 0.332431 15.4829 0 15.4431C1.92432 16.678 4.164 17.3332 6.45048 17.3301" fill="#1DA1F2"/>
</svg>
